<svg width="20" height="20" viewBox="0 0 20 20" fill="none" xmlns="http://www.w3.org/2000/svg">
<path d="M1.53774 4.79632C1.53229 4.69543 1.50701 4.59661 1.46336 4.50549C1.41971 4.41437 1.35853 4.33274 1.28333 4.26526C1.20813 4.19778 1.12037 4.14578 1.02507 4.11221C0.929766 4.07864 0.828784 4.06417 0.727888 4.06963C0.626992 4.07508 0.528159 4.10036 0.437031 4.144C0.345903 4.18765 0.264265 4.24882 0.196779 4.32401C0.129292 4.39921 0.0772791 4.48695 0.0437083 4.58225C0.0101375 4.67754 -0.00433324 4.77851 0.00112241 4.8794L1.53774 4.79632ZM2.52865 0.8649C2.39392 1.01377 2.32275 1.2094 2.33031 1.41002C2.33787 1.61065 2.42358 1.80036 2.56913 1.93867C2.71467 2.07697 2.90853 2.1529 3.1093 2.15023C3.31007 2.14757 3.50184 2.06654 3.64367 1.92442L2.52865 0.8649ZM8.62794 18.0142C8.71348 18.0693 8.80912 18.107 8.9093 18.1249C9.00949 18.1428 9.11223 18.1406 9.21158 18.1185C9.31093 18.0965 9.40491 18.0549 9.48808 17.9963C9.57125 17.9376 9.64196 17.863 9.69611 17.7769C9.75025 17.6907 9.78677 17.5947 9.80353 17.4943C9.82029 17.3939 9.81696 17.2912 9.79375 17.1921C9.77053 17.0931 9.72789 16.9996 9.66828 16.9171C9.60868 16.8346 9.5333 16.7648 9.44651 16.7116L8.62794 18.0142ZM13.1916 18.2665C12.9918 18.2248 12.7836 18.2641 12.6128 18.3759C12.4419 18.4876 12.3225 18.6626 12.2807 18.8625C12.239 19.0623 12.2783 19.2705 12.3901 19.4413C12.5018 19.6121 12.6769 19.7315 12.8767 19.7733L13.1916 18.2665ZM13.7373 13.6366L14.2041 13.1443L13.088 12.0848L12.6213 12.5771L13.7373 13.6366ZM15.7417 12.9371L17.701 14.0654L18.4693 12.732L16.509 11.6037L15.7417 12.9371ZM18.0795 16.4039L16.6218 17.9373L17.7379 18.9978L19.1945 17.4634L18.0795 16.4039ZM6.26351 14.0623C2.28759 9.8765 1.62083 6.34509 1.53774 4.79632L0.00112241 4.8794C0.1037 6.7769 0.907912 10.6581 5.14849 15.1218L6.26351 14.0623ZM7.67499 7.25487L7.96836 6.94511L6.85334 5.88559L6.55894 6.19534L7.67499 7.25487ZM8.20018 3.08857L6.90668 1.25979L5.6501 2.14802L6.94258 3.9768L8.20018 3.08857ZM7.11593 6.72459C6.93133 6.54668 6.74497 6.3706 6.55689 6.19637L6.55483 6.19842L6.55176 6.2015L6.50047 6.26099C6.40002 6.39414 6.32047 6.54182 6.26454 6.69895C6.16401 6.98101 6.11067 7.35436 6.17837 7.82002C6.31172 8.73492 6.9118 9.96471 8.47817 11.615L9.59422 10.5545C8.12941 9.01288 7.76833 8.06413 7.70063 7.59642C7.66781 7.37077 7.70063 7.25282 7.71397 7.21487L7.72217 7.19538L7.69345 7.23333L7.67499 7.25487L7.11593 6.72459ZM8.47817 11.614C10.0404 13.2592 11.2201 13.9054 12.1197 14.052C12.5823 14.1269 12.9567 14.0664 13.2398 13.9546C13.3972 13.8934 13.5435 13.8068 13.6727 13.6982L13.7086 13.6633L13.723 13.6489L13.7302 13.6428L13.7332 13.6397L13.7343 13.6377C13.7343 13.6377 13.7363 13.6366 13.1783 13.1064C12.6203 12.5771 12.6213 12.5751 12.6213 12.5751L12.6234 12.574L12.6254 12.571L12.6316 12.5658L12.6798 12.5227C12.6893 12.5173 12.6876 12.5176 12.6746 12.5238C12.6541 12.532 12.5618 12.5648 12.3669 12.533C11.9545 12.4653 11.0642 12.1022 9.59422 10.5545L8.47817 11.614ZM6.90668 1.25979C5.86653 -0.211035 3.78625 -0.460274 2.52865 0.8649L3.64367 1.92442C4.18015 1.3603 5.1249 1.40441 5.6501 2.14802L6.90668 1.25979ZM16.6218 17.9373C16.3357 18.2388 16.0371 18.4009 15.7458 18.4296L15.8966 19.9599C16.6629 19.8851 17.2835 19.4768 17.7379 18.9978L16.6218 17.9373ZM7.96836 6.94511C8.96131 5.89995 9.03107 4.26502 8.20018 3.08857L6.9436 3.9768C7.37648 4.58913 7.30981 5.40557 6.85334 5.88559L7.96836 6.94511ZM17.701 14.0654C18.5431 14.5505 18.7083 15.7423 18.0795 16.4039L19.1945 17.4634C20.5331 16.0541 20.1433 13.6961 18.4693 12.732L17.701 14.0654ZM14.2041 13.1443C14.599 12.7279 15.2155 12.6345 15.7417 12.9371L16.509 11.6037C15.3817 10.9555 13.9856 11.1412 13.088 12.0848L14.2041 13.1443ZM9.44651 16.7116C8.43817 16.0777 7.36417 15.2203 6.26351 14.0623L5.14849 15.1218C6.33224 16.368 7.50471 17.3086 8.62794 18.0142L9.44651 16.7116ZM15.7448 18.4296C14.8904 18.5042 14.0296 18.4492 13.1916 18.2665L12.8767 19.7733C13.8682 19.9875 14.8863 20.0504 15.8966 19.9599L15.7448 18.4296Z" fill="white"/>
</svg>
