<svg width="9" height="11" viewBox="0 0 9 11" fill="none" xmlns="http://www.w3.org/2000/svg">
<path d="M0.557685 0.459301C0.215223 0.753479 0.0228376 1.15242 0.0228376 1.56839C0.0228376 1.98436 0.215223 2.38329 0.557685 2.67747L3.83213 5.49019L0.557685 8.30291C0.383212 8.44762 0.244046 8.62072 0.148308 8.81211C0.0525699 9.0035 0.0021767 9.20935 6.89726e-05 9.41765C-0.00203876 9.62594 0.0441807 9.83251 0.136031 10.0253C0.227882 10.2181 0.363523 10.3932 0.535042 10.5405C0.70656 10.6878 0.91052 10.8043 1.13502 10.8832C1.35952 10.9621 1.60007 11.0018 1.84262 10.9999C2.08518 10.9981 2.32488 10.9549 2.54775 10.8726C2.77062 10.7904 2.97219 10.6709 3.14071 10.5211L9 5.49019L3.14071 0.459301C2.79814 0.16521 2.33358 0 1.8492 0C1.36481 0 0.900251 0.16521 0.557685 0.459301Z" fill="white"/>
</svg>
